<?xml version="1.0" encoding="UTF-8" standalone="no"?>
<svg
   xmlns:dc="http://purl.org/dc/elements/1.1/"
   xmlns:cc="http://creativecommons.org/ns#"
   xmlns:rdf="http://www.w3.org/1999/02/22-rdf-syntax-ns#"
   xmlns:svg="http://www.w3.org/2000/svg"
   xmlns="http://www.w3.org/2000/svg"
   xmlns:sodipodi="http://sodipodi.sourceforge.net/DTD/sodipodi-0.dtd"
   xmlns:inkscape="http://www.inkscape.org/namespaces/inkscape"
   width="122.45152mm"
   height="122.45152mm"
   viewBox="0 0 122.45152 122.45152"
   version="1.1"
   id="svg8"
   inkscape:version="1.0 (4035a4f, 2020-05-01)"
   sodipodi:docname="open_results.svg"
   inkscape:export-filename="open_results.png"
   inkscape:export-xdpi="300"
   inkscape:export-ydpi="300">
  <defs
     id="defs2">
    <clipPath
       clipPathUnits="userSpaceOnUse"
       id="clipPath1497">
      <path
         id="path1499"
         style="opacity:0.353086;fill:#62a0ea;fill-opacity:1;stroke:none;stroke-width:13.3333;stroke-linejoin:round;stroke-miterlimit:4;stroke-dasharray:none;stroke-dashoffset:0;stroke-opacity:1"
         d="M 30.394255,-1.8426066 H 132.28098 V 264.56401 H 30.394255 Z"
         sodipodi:nodetypes="ccccc" />
    </clipPath>
  </defs>
  <sodipodi:namedview
     id="base"
     pagecolor="#ffffff"
     bordercolor="#666666"
     borderopacity="1.0"
     inkscape:pageopacity="0.0"
     inkscape:pageshadow="2"
     inkscape:zoom="0.97453042"
     inkscape:cx="212.16478"
     inkscape:cy="305.68157"
     inkscape:document-units="mm"
     inkscape:current-layer="XMLID_20_"
     inkscape:document-rotation="0"
     showgrid="false"
     fit-margin-top="0"
     fit-margin-left="0"
     fit-margin-right="0"
     fit-margin-bottom="0"
     inkscape:window-width="1252"
     inkscape:window-height="852"
     inkscape:window-x="58"
     inkscape:window-y="0"
     inkscape:window-maximized="0"
     inkscape:snap-global="false" />
  <metadata
     id="metadata5">
    <rdf:RDF>
      <cc:Work
         rdf:about="">
        <dc:format>image/svg+xml</dc:format>
        <dc:type
           rdf:resource="http://purl.org/dc/dcmitype/StillImage" />
        <dc:title />
      </cc:Work>
    </rdf:RDF>
  </metadata>
  <g
     inkscape:label="Layer 1"
     inkscape:groupmode="layer"
     id="layer1"
     transform="translate(-11.799926,0.16896316)">
    <g
       id="XMLID_20_"
       transform="matrix(1.5691041,0,0,1.5691041,22.811322,10.845467)">
      <g
         transform="matrix(1.089212,0,0,1.089212,-2.8695295,-1.4050708)"
         id="g4804">
        <g
           id="g4798"
           style="fill:#3584e4">
          <path
             id="path4796"
             d="m 61,25 c 1.4,0 2.4,1.9 1.9,3.1 L 52.4,53.8 c -0.3,0.8 -1,1.2 -1.9,1.2 H 1 L 12.1,26.7 C 12.4,25.9 13.1,25 14,25 h 42 z"
             fill="#ffcc66"
             style="fill:#3584e4" />
        </g>
        <g
           id="g4802"
           style="fill:#99c1f1;fill-opacity:1;stroke:none;stroke-opacity:1">
          <path
             sodipodi:nodetypes="ccsccsssccsssc"
             id="path4800"
             d="M 56,24.8 V 25 H 14 c -0.9,0 -1.6,0.9 -1.9,1.7 L 1,55 V 8.3380514 c 0,-1.1 0.9,-2 2,-2 h 23.1 c 0.5,0 1,0.2 1.4,0.6 l 3.4,4.9999996 c 0.4,0.4 0.9,0.6 1.4,0.6 H 54 c 1.1,0 2,0.9 2,2 z"
             fill="#f2bd5f"
             style="fill:#99c1f1;fill-opacity:1;stroke:none;stroke-opacity:1" />
        </g>
      </g>
      <path
         sodipodi:nodetypes="cscsssccsssscscccsssccsssscsccsccsccsscc"
         style="stroke-width:1.08922"
         id="path4806"
         d="M 66.092162,26.514421 C 65.438635,25.643052 64.567265,25.098445 63.586974,25.098445 H 59.230127 V 14.067521 c 0,-1.85166 -1.415976,-3.267636 -3.267636,-3.267636 h -23.6359 c -0.217842,0 -0.544606,-0.108921 -0.653527,-0.217841 L 27.969743,5.1359837 27.860822,5.0270625 C 27.207294,4.3735364 26.444846,4.0467717 25.573477,4.0467717 H 0.41268119 c -1.85166029,0 -3.26763589,1.4159755 -3.26763589,3.2676362 V 59.953228 H 52.150249 c 1.307054,0 2.505188,-0.762449 3.049793,-2.069502 L 66.636767,29.890978 c 0.435685,-0.98029 0.217843,-2.287345 -0.544605,-3.376557 z M -0.67653081,7.3144079 c 0,-0.6535275 0.4356848,-1.0892123 1.089212,-1.0892123 H 25.573477 c 0.217842,0 0.544606,0.1089212 0.653527,0.2178424 l 3.5944,5.337138 0.108921,0.108921 c 0.653527,0.653527 1.415976,0.980291 2.287345,0.980291 h 23.744821 c 0.653527,0 1.089212,0.435685 1.089212,1.089212 V 25.098445 H 12.394012 c -1.524896,0 -2.6141077,1.307055 -3.0497927,2.505188 L -0.67653081,53.091193 Z M 64.676186,29.237451 53.239461,57.121277 c -0.217843,0.435685 -0.544606,0.653527 -0.980291,0.653527 H -0.13192481 L 11.413721,28.366081 c 0.217843,-0.653527 0.762449,-1.089212 0.980291,-1.089212 h 51.192962 c 0.217842,0 0.544606,0.217843 0.762449,0.544607 0.326763,0.435684 0.435684,0.98029 0.326763,1.415975 z"
         fill="#2d2d2d" />
    </g>
  </g>
</svg>
