<?xml version="1.0" encoding="UTF-8" standalone="no"?>
<svg
   xmlns:dc="http://purl.org/dc/elements/1.1/"
   xmlns:cc="http://creativecommons.org/ns#"
   xmlns:rdf="http://www.w3.org/1999/02/22-rdf-syntax-ns#"
   xmlns:svg="http://www.w3.org/2000/svg"
   xmlns="http://www.w3.org/2000/svg"
   xmlns:sodipodi="http://sodipodi.sourceforge.net/DTD/sodipodi-0.dtd"
   xmlns:inkscape="http://www.inkscape.org/namespaces/inkscape"
   width="122.45152mm"
   height="122.45152mm"
   viewBox="0 0 122.45152 122.45152"
   version="1.1"
   id="svg8"
   inkscape:version="1.0 (4035a4f, 2020-05-01)"
   sodipodi:docname="save.svg"
   inkscape:export-filename="save.png"
   inkscape:export-xdpi="300"
   inkscape:export-ydpi="300">
  <defs
     id="defs2">
    <clipPath
       clipPathUnits="userSpaceOnUse"
       id="clipPath1497">
      <path
         id="path1499"
         style="opacity:0.353086;fill:#62a0ea;fill-opacity:1;stroke:none;stroke-width:13.3333;stroke-linejoin:round;stroke-miterlimit:4;stroke-dasharray:none;stroke-dashoffset:0;stroke-opacity:1"
         d="M 30.394255,-1.8426066 H 132.28098 V 264.56401 H 30.394255 Z"
         sodipodi:nodetypes="ccccc" />
    </clipPath>
  </defs>
  <sodipodi:namedview
     id="base"
     pagecolor="#ffffff"
     bordercolor="#666666"
     borderopacity="1.0"
     inkscape:pageopacity="0.0"
     inkscape:pageshadow="2"
     inkscape:zoom="0.65680346"
     inkscape:cx="251.89118"
     inkscape:cy="450.24385"
     inkscape:document-units="mm"
     inkscape:current-layer="g1474"
     inkscape:document-rotation="0"
     showgrid="false"
     fit-margin-top="0"
     fit-margin-left="0"
     fit-margin-right="0"
     fit-margin-bottom="0"
     inkscape:window-width="1252"
     inkscape:window-height="852"
     inkscape:window-x="103"
     inkscape:window-y="24"
     inkscape:window-maximized="0"
     inkscape:snap-global="false" />
  <metadata
     id="metadata5">
    <rdf:RDF>
      <cc:Work
         rdf:about="">
        <dc:format>image/svg+xml</dc:format>
        <dc:type
           rdf:resource="http://purl.org/dc/dcmitype/StillImage" />
        <dc:title></dc:title>
      </cc:Work>
    </rdf:RDF>
  </metadata>
  <g
     inkscape:label="Layer 1"
     inkscape:groupmode="layer"
     id="layer1"
     transform="translate(-11.799926,0.16896316)">
    <g
       transform="translate(-1.3384041,2.8949298)"
       id="g1474">
      <path
         id="path2119"
         d="M 38.726536,22.526619 V 93.801567 H 110.00165 L 115.21604,42.322361 84.178708,22.526619 Z"
         style="fill:#ffb25c;stroke:#000000;stroke-width:0.26458300000000001px;stroke-linecap:butt;stroke-linejoin:miter;stroke-opacity:1;fill-opacity:1" />
      <rect
         ry="0"
         y="63.561058"
         x="54.18951"
         height="12.065643"
         width="42.363506"
         id="rect2121"
         style="fill:#f3f3f3;fill-opacity:1;stroke:none;stroke-width:3.52777;stroke-linecap:round;stroke-linejoin:round;stroke-miterlimit:4;stroke-dasharray:none;stroke-opacity:1" />
      <rect
         style="fill:#ebebeb;fill-opacity:1;stroke:none;stroke-width:3.52777;stroke-linecap:round;stroke-linejoin:round;stroke-miterlimit:4;stroke-dasharray:none;stroke-opacity:1"
         id="rect2123"
         width="33.501141"
         height="21.733683"
         x="54.18951"
         y="21.22772"
         ry="0" />
      <rect
         style="fill:#f3f3f3;fill-opacity:1;stroke:none;stroke-width:3.52777;stroke-linecap:round;stroke-linejoin:round;stroke-miterlimit:4;stroke-dasharray:none;stroke-opacity:1"
         id="rect2125"
         width="42.363506"
         height="12.065643"
         x="54.18951"
         y="81.552734"
         ry="0" />
      <g
         transform="matrix(0.16308228,0,0,0.16308228,32.615028,16.412828)"
         id="g1480">
        <g
           id="g1478">
          <path
             d="M 506.499,158.874 353.139,5.514 C 346.913,-0.713 340.1,0.027 334.913,0.027 c -13.189,0 -308.271,0 -316.168,0 C 8.4,0.027 0.014,8.414 0.014,18.758 v 474.511 c 0,10.344 8.386,18.731 18.73,18.731 4.503,0 464.273,0 474.511,0 10.344,0 18.731,-8.386 18.731,-18.731 v -321.15 c 0,-4.968 -1.974,-9.733 -5.487,-13.245 z M 152.528,37.489 H 316.182 V 140.176 H 152.528 Z M 379.709,474.538 H 132.292 v -73.985 h 247.416 v 73.985 z m 0,-111.446 h -10e-4 -247.416 v -73.985 h 247.416 v 73.985 z m 94.816,111.446 H 417.169 V 270.376 c 0,-10.344 -8.386,-18.731 -18.731,-18.731 H 113.562 c -10.344,0 -18.731,8.386 -18.731,18.731 V 474.538 H 37.475 V 37.489 h 77.591 v 121.417 c 0,10.344 8.386,18.731 18.731,18.731 h 201.115 c 10.344,0 18.731,-8.386 18.731,-18.731 v -99.91 l 120.882,120.882 z"
             id="path1476" />
        </g>
      </g>
    </g>
  </g>
</svg>
